<?xml version="1.0" standalone="no"?>
<!DOCTYPE svg PUBLIC "-//W3C//DTD SVG 20010904//EN"
 "http://www.w3.org/TR/2001/REC-SVG-20010904/DTD/svg10.dtd">
<svg version="1.0" xmlns="http://www.w3.org/2000/svg"
 width="700.000000pt" height="700.000000pt" viewBox="0 0 700.000000 700.000000"
 preserveAspectRatio="xMidYMid meet">
<metadata>
Created by potrace 1.14, written by Peter Selinger 2001-2017
</metadata>
<g transform="translate(0.000000,700.000000) scale(0.100000,-0.100000)"
fill="#000000" stroke="none">
<path d="M5187 4660 c-60 -15 -111 -45 -151 -90 -73 -81 -70 -58 -76 -625 l-5
-510 -451 540 c-247 297 -466 553 -485 569 -81 69 -198 89 -307 52 -69 -23
-152 -99 -183 -168 -24 -53 -24 -54 -29 -522 l-5 -470 -449 540 c-246 296
-460 550 -475 562 -14 13 -51 35 -81 50 -152 72 -349 -5 -423 -166 -21 -46
-22 -62 -27 -516 l-5 -468 -463 556 c-456 547 -464 556 -528 587 -55 27 -76
32 -138 32 -112 0 -215 -55 -272 -145 -55 -87 -55 -81 -52 -1034 l3 -879 24
-49 c54 -109 150 -170 266 -170 118 0 212 60 266 170 l24 49 5 503 5 502 461
-552 c498 -599 495 -595 613 -618 99 -19 228 25 293 99 17 19 43 60 57 91 l26
55 5 462 5 461 457 -549 c279 -334 473 -558 495 -572 170 -107 404 -33 472
148 20 54 21 74 21 515 0 253 3 460 8 459 4 0 205 -239 447 -530 242 -292 459
-548 483 -569 79 -70 201 -92 312 -55 42 14 70 33 115 79 102 102 95 29 95
1055 0 998 4 941 -76 1030 -68 76 -184 114 -277 91z"/>
<path d="M6050 2906 c-103 -27 -189 -119 -211 -224 -41 -199 144 -384 343
-343 155 33 261 191 229 342 -23 108 -109 198 -213 226 -62 16 -88 16 -148 -1z"/>
</g>
</svg>
